<svg xmlns="http://www.w3.org/2000/svg" xmlns:xlink="http://www.w3.org/1999/xlink" width="500" zoomAndPan="magnify" viewBox="0 0 375 374.999991" height="500" preserveAspectRatio="xMidYMid meet" version="1.0"><defs><g/><clipPath id="3eda928dfb"><path d="M 137 200 L 236 200 L 236 224.050781 L 137 224.050781 Z M 137 200 " clip-rule="nonzero"/></clipPath><clipPath id="4790d9b603"><path d="M 133.84375 86.050781 L 241.09375 86.050781 L 241.09375 217 L 133.84375 217 Z M 133.84375 86.050781 " clip-rule="nonzero"/></clipPath><clipPath id="a378a5e2ac"><path d="M 138.5 90 L 237 90 L 237 212 L 138.5 212 Z M 138.5 90 " clip-rule="nonzero"/></clipPath><clipPath id="f4de9caae6"><path d="M 187.605469 211.363281 L 187.3125 211.269531 L 138.757812 195.667969 L 138.757812 90.925781 L 236.460938 90.925781 L 236.460938 195.667969 L 187.605469 211.363281 M 140.667969 92.835938 L 140.667969 194.269531 L 187.605469 209.351562 L 234.539062 194.269531 L 234.539062 92.835938 L 140.667969 92.835938 " clip-rule="nonzero"/></clipPath><clipPath id="7668376c15"><path d="M 187.605469 211.363281 L 187.3125 211.269531 L 138.757812 195.667969 L 138.757812 90.925781 L 236.460938 90.925781 L 236.460938 195.667969 L 187.605469 211.363281 M 140.667969 92.835938 L 140.667969 194.269531 L 187.605469 209.351562 L 234.539062 194.269531 L 234.539062 92.835938 L 140.667969 92.835938 " clip-rule="nonzero"/></clipPath><clipPath id="2ddd07b26c"><path d="M 156.3125 103.8125 L 218.5625 103.8125 L 218.5625 188.5625 L 156.3125 188.5625 Z M 156.3125 103.8125 " clip-rule="nonzero"/></clipPath></defs><rect x="-37.5" width="450" fill="#ffffff" y="-37.499999" height="449.999989" fill-opacity="1"/><rect x="-37.5" width="450" fill="#d5ddcb" y="-37.499999" height="449.999989" fill-opacity="1"/><g clip-path="url(#3eda928dfb)"><path fill="#5d822b" d="M 186.644531 224.0625 L 137.796875 206.824219 L 137.796875 200.382812 L 187.605469 216.398438 L 235.492188 201 L 235.492188 206.824219 L 186.644531 224.0625 " fill-opacity="1" fill-rule="nonzero"/></g><g clip-path="url(#4790d9b603)"><path fill="#395b0b" d="M 241.246094 199.160156 L 187.605469 216.398438 L 133.96875 199.160156 L 133.96875 86.128906 L 241.246094 86.128906 L 241.246094 199.160156 " fill-opacity="1" fill-rule="nonzero"/></g><g clip-path="url(#a378a5e2ac)"><g clip-path="url(#f4de9caae6)"><g clip-path="url(#7668376c15)"><path fill="#ffffff" d="M 138.757812 90.925781 L 138.757812 211.363281 L 236.460938 211.363281 L 236.460938 90.925781 Z M 138.757812 90.925781 " fill-opacity="1" fill-rule="nonzero"/></g></g></g><g clip-path="url(#2ddd07b26c)"><path fill="#ffffff" d="M 170.386719 171.210938 C 170.667969 171.304688 170.335938 170.722656 170.378906 170.457031 C 172.074219 169.554688 171.886719 166.773438 173.894531 166.1875 C 173.960938 165.414062 174.441406 165.054688 174.648438 164.425781 C 175.644531 164.628906 176.097656 164.257812 176.910156 163.925781 C 177.066406 163.859375 177.699219 163.816406 177.914062 163.675781 C 178.753906 163.109375 178.816406 162.382812 179.421875 161.664062 C 178.910156 160.734375 179.59375 160.167969 179.421875 158.902344 C 180.550781 159.027344 180.277344 157.746094 181.429688 157.894531 C 181.386719 157.269531 181.816406 157.109375 182.183594 156.890625 C 182.132812 156.261719 182.460938 155.777344 182.6875 155.132812 C 182.8125 154.769531 183.078125 154.328125 183.191406 153.875 C 183.320312 153.351562 183.488281 153.0625 183.691406 152.621094 C 183.863281 152.25 183.886719 151.683594 184.195312 151.113281 C 184.269531 150.96875 184.644531 150.730469 184.695312 150.609375 C 184.757812 150.472656 184.660156 150.257812 184.695312 150.109375 C 184.789062 149.738281 185.324219 148.363281 184.695312 147.34375 C 183.078125 147.976562 182.175781 146.792969 180.929688 146.339844 C 180.699219 146.070312 180.9375 145.519531 180.679688 145.082031 C 180.558594 144.882812 180.023438 144.777344 179.925781 144.582031 C 179.761719 144.261719 179.621094 143.183594 179.421875 142.824219 C 179.347656 142.691406 179.195312 142.851562 179.171875 142.570312 C 179.144531 142.261719 179.296875 141.8125 179.421875 141.316406 C 179.683594 140.253906 179.761719 139.585938 180.679688 139.054688 C 180.683594 138.460938 180.246094 138.316406 180.425781 137.546875 C 180.902344 137.441406 181.058594 137.007812 181.683594 137.046875 C 181.746094 136.308594 181.113281 136.273438 181.179688 135.539062 C 182.183594 135.117188 182.210938 133.722656 183.945312 134.03125 C 184.824219 133.960938 183.488281 132.917969 184.195312 133.027344 C 184.007812 132.082031 185.152344 132.476562 185.199219 131.769531 C 185.382812 131.082031 184.699219 131.265625 184.695312 130.765625 C 184.515625 130.078125 185.195312 130.261719 185.199219 129.761719 C 185.105469 129.363281 184.730469 129.148438 184.695312 128.753906 C 184.660156 128.351562 184.894531 128.316406 184.949219 128 C 185.089844 127.199219 184.902344 126.496094 185.199219 125.488281 C 185.222656 125.414062 185.4375 125.476562 185.449219 125.238281 C 185.460938 125.042969 185.667969 124.96875 185.703125 124.734375 C 185.800781 124.035156 185.285156 123.464844 185.703125 122.976562 C 184.675781 121.488281 183.371094 120.285156 182.4375 118.707031 C 181.085938 118.378906 180.015625 117.78125 178.164062 117.953125 C 177.730469 117.953125 177.644531 117.65625 177.410156 117.449219 C 177.242188 117.300781 176.996094 117.1875 176.910156 116.949219 C 176.246094 116.886719 175.8125 117.03125 175.152344 116.949219 C 174.636719 116.882812 174.097656 116.511719 173.644531 116.445312 C 172.492188 116.28125 171.472656 116.574219 170.378906 116.195312 C 170.285156 116.160156 170.378906 115.957031 170.125 115.941406 C 170.058594 115.941406 169.9375 115.96875 169.875 115.941406 C 169.652344 115.855469 168.929688 115.660156 168.367188 115.441406 C 168.265625 115.402344 168.378906 115.203125 168.117188 115.191406 C 168.050781 115.1875 167.925781 115.214844 167.867188 115.191406 C 167.710938 115.128906 167.664062 114.957031 167.613281 114.9375 C 167.199219 114.789062 166.71875 114.78125 166.359375 114.6875 C 166.296875 114.671875 166.335938 114.449219 166.105469 114.4375 C 165.527344 114.40625 165.359375 114.386719 164.851562 114.183594 C 164.746094 114.140625 163.859375 113.949219 163.59375 113.683594 C 162.691406 114.285156 162.589844 115.691406 161.835938 116.445312 C 161.230469 116.34375 161.292969 116.90625 160.582031 116.695312 C 160.136719 116.925781 160.121094 117.578125 159.828125 117.953125 C 159.222656 117.851562 159.28125 118.414062 158.570312 118.203125 C 157.789062 118.511719 157.5625 119.371094 156.308594 119.210938 C 156.472656 118.996094 156.363281 118.367188 156.5625 118.203125 C 156.980469 117.859375 156.683594 117.269531 157.0625 116.695312 C 157.246094 116.421875 157.398438 116.238281 157.566406 115.941406 C 157.777344 115.570312 157.917969 114.890625 158.070312 114.6875 C 158.230469 114.472656 158.757812 114.25 159.074219 113.933594 C 159.371094 113.632812 159.601562 113.078125 159.828125 112.929688 C 160.128906 112.726562 160.476562 112.824219 160.832031 112.679688 C 160.941406 112.632812 160.816406 112.441406 161.082031 112.425781 C 161.761719 112.390625 162.328125 111.894531 163.09375 111.421875 C 164.679688 111.789062 166.707031 111.785156 168.621094 111.925781 C 169.019531 111.953125 169.050781 112.132812 169.375 112.175781 C 170.796875 112.347656 172.230469 111.960938 173.390625 112.175781 C 174 112.285156 174.652344 112.683594 175.152344 112.929688 C 176.027344 113.09375 176.523438 112.410156 177.664062 112.679688 C 178.226562 112.8125 178.28125 112.882812 179.421875 112.679688 C 180.113281 112.554688 180.574219 112.035156 181.429688 112.175781 C 182.410156 112.210938 182.53125 112.703125 183.691406 112.929688 C 184.839844 112.367188 187.097656 110.925781 188.464844 112.175781 C 188.792969 111.917969 189.390625 111.929688 189.722656 111.671875 C 190.125 111.617188 189.84375 111.011719 189.972656 110.667969 C 190.011719 110.566406 190.460938 110.226562 190.476562 110.164062 C 190.566406 109.699219 190.214844 109.40625 190.222656 108.910156 C 190.222656 108.960938 190.46875 108.796875 190.476562 108.660156 C 190.507812 108.023438 190.429688 107.433594 190.726562 106.898438 C 190.800781 106.765625 190.960938 106.933594 190.976562 106.648438 C 191.011719 105.992188 191.449219 106.203125 191.480469 105.644531 C 191.507812 105.121094 192.070312 105.542969 192.484375 105.140625 C 192.652344 104.980469 192.539062 104.519531 192.734375 104.386719 C 192.96875 104.332031 193.257812 104.457031 193.488281 104.386719 C 193.75 104.308594 194.097656 104.257812 194.496094 104.136719 C 194.601562 104.101562 194.785156 103.886719 194.746094 103.886719 C 195.160156 103.84375 195.171875 104.125 195.5 104.136719 C 195.769531 104.144531 195.984375 103.882812 196 103.886719 C 196.207031 103.902344 196.421875 104.101562 196.753906 104.136719 C 197.316406 104.195312 197.527344 104.160156 198.011719 104.386719 C 198.132812 104.445312 197.984375 104.625 198.261719 104.640625 C 198.574219 104.65625 198.695312 105.019531 199.015625 105.390625 C 199.164062 105.5625 199.210938 105.894531 199.519531 105.894531 C 200.007812 105.894531 199.535156 106.664062 199.769531 106.898438 C 199.789062 106.921875 200.011719 106.875 200.019531 106.898438 C 200.085938 107.121094 199.929688 107.445312 200.019531 107.652344 C 200.070312 107.765625 200.246094 107.644531 200.273438 107.90625 C 200.316406 108.308594 200.070312 108.480469 200.019531 108.910156 C 199.925781 109.753906 199.871094 110.675781 199.769531 111.671875 C 199.949219 112.585938 201.601562 112.019531 202.535156 112.175781 C 203.027344 111.972656 203.097656 112.613281 203.285156 112.679688 C 203.589844 112.777344 203.988281 112.585938 204.292969 112.679688 C 204.394531 112.710938 204.734375 113.167969 204.792969 113.179688 C 205.199219 113.253906 205.226562 112.941406 205.546875 112.929688 C 204.808594 112.078125 203.535156 111.761719 203.035156 110.667969 C 202.570312 110.632812 202.195312 110.503906 202.03125 110.164062 C 201.796875 109.898438 201.105469 110.085938 201.277344 109.410156 C 201.925781 109.007812 203.363281 109.550781 203.789062 110.164062 C 203.972656 110.148438 203.941406 109.71875 203.789062 109.410156 C 203.714844 109.257812 203.347656 109.039062 203.285156 108.910156 C 203.046875 108.40625 202.914062 107.855469 202.785156 107.402344 C 202.582031 107.1875 202.097656 107.253906 202.03125 106.898438 C 202.109375 106.054688 202.871094 105.898438 203.539062 105.644531 C 203.351562 106.585938 204.496094 106.191406 204.542969 106.898438 C 205.136719 106.894531 205.28125 107.332031 206.050781 107.152344 C 206.648438 107.894531 207.535156 108.347656 208.3125 108.910156 C 208.613281 109.773438 208.855469 110.558594 209.316406 111.171875 C 210.925781 113.3125 214.402344 113.632812 216.851562 114.9375 C 217.054688 115.40625 217.273438 115.859375 217.355469 116.445312 C 217.546875 117.175781 218.546875 117.097656 218.359375 118.203125 C 218.6875 118.964844 217.859375 118.648438 217.605469 118.957031 C 217.574219 118.992188 217.644531 119.1875 217.605469 119.210938 C 217.511719 119.265625 217.167969 119.128906 217.101562 119.210938 C 217.078125 119.238281 217.132812 119.445312 217.101562 119.460938 C 217.011719 119.503906 216.660156 119.386719 216.601562 119.460938 C 216.328125 119.792969 216.085938 119.566406 215.597656 119.710938 C 214.972656 119.898438 214.414062 120.410156 213.085938 120.214844 C 212.699219 120.160156 212.292969 119.753906 211.828125 119.710938 C 211.394531 119.671875 211.28125 119.945312 210.824219 119.964844 C 210.261719 119.984375 210.050781 119.605469 209.066406 119.710938 C 208.613281 119.761719 208.003906 119.929688 207.558594 120.214844 C 207.1875 120.449219 206.179688 120.378906 205.546875 120.714844 C 205.074219 120.742188 205.375 121.546875 204.792969 121.46875 C 204.765625 122.636719 204.851562 123.058594 204.542969 123.984375 C 204.511719 124.070312 204.304688 123.984375 204.292969 124.234375 C 204.273438 124.59375 204.023438 125.894531 203.789062 126.242188 C 203.441406 126.765625 203.261719 127.507812 203.285156 128.503906 C 203.042969 128.511719 203.089844 128.808594 203.035156 129.007812 C 202.191406 129.25 201.78125 129.929688 201.277344 130.515625 C 201.933594 131.140625 201.300781 131.941406 201.027344 132.773438 C 200.855469 133.285156 200.90625 133.890625 200.773438 134.28125 C 200.746094 134.371094 200.535156 134.285156 200.523438 134.53125 C 200.511719 134.742188 200.167969 134.933594 200.273438 135.285156 C 199.492188 135.679688 198.953125 136.3125 198.261719 136.792969 C 197.597656 139.132812 199.695312 139.980469 199.265625 142.824219 C 199.675781 143.5 200.25 144.019531 201.027344 144.332031 C 201.28125 145.539062 202.324219 146.011719 202.28125 147.09375 C 202.285156 147.050781 202.039062 147.195312 202.03125 147.34375 C 202.003906 147.84375 201.898438 148.09375 201.527344 148.601562 C 201.074219 149.222656 200.070312 150.082031 199.519531 150.863281 C 196.558594 151.164062 196.027344 153.902344 193.238281 154.378906 C 192.789062 155.449219 192.335938 156.667969 191.730469 157.644531 C 191.644531 157.78125 191.496094 157.605469 191.480469 157.894531 C 191.464844 158.203125 190.996094 158.5 190.726562 158.902344 C 190.542969 159.175781 190.382812 159.355469 190.222656 159.65625 C 189.402344 161.175781 187.660156 162.644531 185.953125 163.675781 C 186.1875 164.066406 185.71875 164.335938 185.703125 164.425781 C 185.378906 166.277344 185.941406 168.410156 186.457031 169.703125 C 186.203125 169.890625 185.960938 170.011719 185.703125 170.207031 C 185.144531 170.621094 185.175781 170.75 184.445312 170.207031 C 184.25 170.058594 183.976562 170.011719 183.941406 169.703125 C 183.457031 169.777344 183.125 169.960938 182.6875 169.703125 C 182.671875 169.691406 182.921875 169.359375 182.9375 169.226562 C 182.917969 169.261719 182.710938 168.988281 182.683594 168.949219 C 182.683594 168.945312 182.683594 168.945312 182.683594 168.945312 C 182.515625 168.785156 182.042969 168.769531 182.183594 168.949219 C 182.15625 168.914062 181.683594 168.707031 181.683594 168.699219 C 181.628906 168.390625 182.234375 168.1875 181.683594 167.691406 C 180.324219 167.839844 179.859375 168.886719 179.671875 170.207031 C 179.066406 170.21875 178.980469 170.832031 178.667969 171.210938 C 178.433594 171.496094 177.609375 171.710938 177.914062 172.464844 C 177.746094 172.707031 176.898438 172.425781 176.65625 172.71875 C 176.648438 172.730469 175.707031 173.535156 175.652344 173.472656 C 175.070312 172.742188 175.996094 174.292969 175.152344 173.472656 C 174.785156 173.582031 175.175781 173.691406 175.152344 173.972656 C 174.320312 174.0625 174.0625 174.722656 173.644531 175.230469 C 173.238281 175.300781 173.210938 174.992188 172.890625 174.976562 C 173.171875 175.300781 173.027344 175.300781 172.890625 175.480469 C 172.8125 175.582031 172.488281 175.898438 172.386719 175.984375 C 172.1875 176.152344 171.863281 176.0625 171.632812 176.234375 C 171.632812 176.09375 171.429688 175.949219 171.382812 176.234375 C 170.640625 176.582031 170.363281 177.394531 169.625 177.742188 C 169.527344 178.015625 169.324219 178.34375 169.625 177.992188 C 170.347656 177.652344 170.625 176.871094 171.328125 176.515625 C 170.800781 177.058594 170.105469 178.019531 169.625 178.496094 C 169.21875 178.566406 169.191406 178.257812 168.871094 178.242188 C 169.160156 178.617188 169.160156 178.878906 168.871094 179.25 C 168.394531 179.4375 168.695312 179.996094 168.117188 179.5 C 168.414062 180.257812 168.730469 180.996094 168.367188 181.761719 C 167.738281 182.125 167.378906 182.367188 166.609375 182.011719 C 165.761719 182.839844 166.007812 184.761719 165.101562 185.53125 C 165.183594 186.699219 164.90625 187.511719 164.601562 188.292969 C 164.308594 188.253906 164.152344 188.347656 164.097656 188.542969 C 162.820312 188.886719 162.695312 186.777344 161.835938 187.539062 C 161.082031 187.375 162.078125 187 161.835938 186.535156 C 161.785156 185.574219 161.1875 186.527344 160.832031 186.03125 C 160.699219 185.847656 161.328125 185.566406 161.332031 185.53125 C 161.375 185.183594 160.980469 184.941406 160.328125 185.027344 C 160.597656 184.960938 160.414062 184.441406 160.582031 184.273438 C 160.882812 183.972656 160.449219 184.074219 160.582031 183.519531 C 160.59375 183.464844 160.820312 183.492188 160.832031 183.269531 C 160.835938 183.199219 160.804688 183.078125 160.832031 183.015625 C 160.875 182.910156 161.066406 182.023438 161.332031 181.761719 C 161.378906 181.214844 161.128906 180.960938 160.582031 181.007812 C 160.667969 180.679688 161.023438 180.613281 161.082031 180.253906 C 160.972656 179.945312 160.761719 179.738281 160.328125 179.75 C 160.414062 178.863281 161.019531 179.132812 160.582031 178.242188 C 161.550781 177.542969 162.6875 177 163.847656 176.484375 C 164.417969 176.414062 164.789062 176.546875 164.851562 176.988281 C 165.226562 176.984375 164.875 176.683594 164.851562 176.738281 C 165.015625 176.371094 165.6875 176.378906 165.855469 175.730469 C 166.4375 175.652344 166.820312 175.773438 167.113281 175.984375 C 166.632812 175.5 167.457031 175.285156 167.949219 174.886719 C 167.921875 174.914062 167.894531 174.945312 167.867188 174.976562 C 167.71875 175.148438 167.296875 175.507812 167.613281 175.730469 C 167.648438 175.28125 168.0625 175.332031 168.367188 174.976562 C 169.136719 174.09375 168.648438 174.238281 168.136719 174.703125 C 168.289062 174.535156 168.605469 174.199219 168.621094 173.972656 C 168.636719 173.652344 169.039062 173.65625 169.121094 173.472656 C 169.359375 172.941406 169.121094 173.078125 169.625 173.21875 C 168.949219 171.742188 170.296875 173.417969 169.625 171.964844 C 169.757812 171.917969 169.964844 172.335938 170.125 172.214844 C 170.148438 172.199219 169.726562 171.648438 169.875 171.460938 C 169.90625 171.417969 170.324219 171.816406 170.378906 171.710938 C 170.417969 171.632812 170.0625 171.230469 170.125 170.957031 C 170.175781 170.757812 170.449219 171.210938 170.386719 171.210938 Z M 174.398438 174.226562 C 174.414062 174.070312 174.433594 173.929688 174.648438 173.972656 C 174.421875 173.292969 174.085938 174.550781 173.644531 174.476562 C 173.113281 175.511719 173.976562 174.378906 174.398438 174.226562 Z M 167.371094 166.941406 C 167.691406 166.707031 167.464844 166.808594 167.371094 166.941406 C 167.105469 167.132812 167.058594 167.179688 166.867188 167.445312 C 166.546875 167.679688 166.773438 167.578125 166.867188 167.445312 C 167.132812 167.253906 167.183594 167.207031 167.371094 166.941406 " fill-opacity="1" fill-rule="nonzero"/></g><path fill="#ffffff" d="M 174.648438 173.972656 C 174.433594 173.929688 174.414062 174.070312 174.398438 174.226562 C 173.976562 174.378906 173.113281 175.511719 173.644531 174.476562 C 174.085938 174.550781 174.421875 173.292969 174.648438 173.972656 " fill-opacity="1" fill-rule="nonzero"/><path fill="#ffffff" d="M 171.632812 176.234375 C 171.433594 176.191406 171.402344 176.316406 171.386719 176.457031 C 171.367188 176.476562 171.34375 176.496094 171.328125 176.515625 C 170.625 176.871094 170.347656 177.652344 169.625 177.992188 C 169.324219 178.34375 169.527344 178.015625 169.625 177.742188 C 170.367188 177.394531 170.640625 176.582031 171.382812 176.234375 C 171.429688 175.949219 171.632812 176.09375 171.632812 176.234375 " fill-opacity="1" fill-rule="nonzero"/><path fill="#ffffff" d="M 171.386719 176.457031 C 171.402344 176.316406 171.433594 176.191406 171.632812 176.234375 C 171.558594 176.292969 171.472656 176.367188 171.386719 176.457031 " fill-opacity="1" fill-rule="nonzero"/><path fill="#ffffff" d="M 171.382812 169.953125 C 171.476562 169.820312 171.703125 169.71875 171.382812 169.953125 " fill-opacity="1" fill-rule="nonzero"/><path fill="#ffffff" d="M 171.386719 176.457031 C 171.386719 176.464844 171.382812 176.476562 171.382812 176.484375 C 171.367188 176.492188 171.34375 176.503906 171.328125 176.515625 C 171.34375 176.496094 171.367188 176.476562 171.386719 176.457031 " fill-opacity="1" fill-rule="nonzero"/><path fill="#ffffff" d="M 171.382812 169.953125 C 171.195312 170.21875 171.144531 170.265625 170.878906 170.457031 C 171.070312 170.191406 171.117188 170.144531 171.382812 169.953125 " fill-opacity="1" fill-rule="nonzero"/><path fill="#ffffff" d="M 170.878906 170.457031 C 170.785156 170.589844 170.558594 170.691406 170.878906 170.457031 " fill-opacity="1" fill-rule="nonzero"/><path fill="#ffffff" d="M 168.136719 174.703125 C 168.648438 174.238281 169.136719 174.09375 168.367188 174.980469 C 168.0625 175.332031 167.648438 175.28125 167.613281 175.734375 C 167.296875 175.507812 167.71875 175.148438 167.867188 174.980469 C 167.894531 174.945312 167.921875 174.914062 167.949219 174.886719 C 168.011719 174.839844 168.070312 174.785156 168.117188 174.726562 C 168.121094 174.71875 168.128906 174.710938 168.136719 174.703125 " fill-opacity="1" fill-rule="nonzero"/><path fill="#ffffff" d="M 168.136719 174.703125 C 168.128906 174.710938 168.121094 174.71875 168.117188 174.726562 C 168.070312 174.785156 168.011719 174.839844 167.949219 174.886719 C 168.011719 174.820312 168.074219 174.761719 168.136719 174.703125 " fill-opacity="1" fill-rule="nonzero"/><path fill="#ffffff" d="M 199.84375 180.371094 C 199.84375 183.675781 197.164062 186.359375 193.855469 186.359375 C 190.546875 186.359375 187.867188 183.675781 187.867188 180.371094 C 187.867188 177.0625 190.546875 174.382812 193.855469 174.382812 C 197.164062 174.382812 199.84375 177.0625 199.84375 180.371094 " fill-opacity="1" fill-rule="nonzero"/><g fill="#395b0b" fill-opacity="1"><g transform="translate(154.973189, 270.626987)"><g><path d="M 2.632812 -8.703125 L 0.746094 -8.703125 L 0.746094 0 L 2.820312 0 C 3.863281 0 5.402344 -1.21875 5.402344 -4.570312 C 5.402344 -7.613281 3.910156 -8.703125 2.632812 -8.703125 Z M 2.820312 -1.613281 L 2.335938 -1.613281 L 2.335938 -7.089844 L 2.632812 -7.089844 C 3.167969 -7.089844 3.800781 -6.433594 3.800781 -4.570312 C 3.800781 -2.484375 3.066406 -1.652344 2.820312 -1.613281 Z M 2.820312 -1.613281 "/></g></g></g><g fill="#395b0b" fill-opacity="1"><g transform="translate(161.703108, 270.626987)"><g><path d="M 4.855469 -7.078125 L 4.855469 -8.703125 L 0.746094 -8.703125 L 0.746094 0.0117188 L 4.855469 0.0117188 L 4.855469 -1.601562 L 2.335938 -1.601562 L 2.335938 -3.949219 L 4.097656 -3.949219 L 4.097656 -5.550781 L 2.335938 -5.550781 L 2.335938 -7.078125 Z M 4.855469 -7.078125 "/></g></g></g><g fill="#395b0b" fill-opacity="1"><g transform="translate(167.874276, 270.626987)"><g/></g></g><g fill="#395b0b" fill-opacity="1"><g transform="translate(171.934654, 270.626987)"><g><path d="M 3.761719 -8.703125 L 3.761719 -5.191406 C 3.761719 -2.570312 3.441406 -1.851562 3.277344 -1.664062 C 3.265625 -1.652344 3.253906 -1.640625 3.253906 -1.625 C 3.203125 -1.589844 3.128906 -1.539062 3.042969 -1.539062 C 2.980469 -1.539062 2.929688 -1.578125 2.894531 -1.601562 C 2.878906 -1.613281 2.855469 -1.625 2.84375 -1.652344 C 2.683594 -1.8125 2.335938 -2.496094 2.335938 -5.179688 L 2.335938 -8.703125 L 0.746094 -8.703125 L 0.746094 -5.191406 C 0.734375 -3.265625 0.855469 -1.367188 1.738281 -0.484375 C 2.0625 -0.160156 2.457031 0.0117188 2.90625 0.0117188 L 3.203125 0.0117188 C 3.636719 0.0117188 4.046875 -0.160156 4.371094 -0.484375 C 5.253906 -1.367188 5.363281 -3.265625 5.363281 -5.191406 L 5.363281 -8.703125 Z M 3.761719 -8.703125 "/></g></g></g><g fill="#395b0b" fill-opacity="1"><g transform="translate(178.627316, 270.626987)"><g><path d="M 4.59375 -5.101562 C 4.65625 -5.289062 4.707031 -5.464844 4.730469 -5.601562 C 4.742188 -5.738281 4.769531 -5.886719 4.78125 -6.023438 C 4.816406 -6.53125 4.792969 -7.078125 4.59375 -7.5625 C 4.507812 -7.808594 4.347656 -8.058594 4.148438 -8.246094 C 3.898438 -8.480469 3.488281 -8.59375 3.152344 -8.640625 C 2.632812 -8.714844 2.074219 -8.691406 1.539062 -8.691406 C 1.527344 -8.691406 0.746094 -8.691406 0.746094 -8.691406 L 0.746094 0.0117188 L 3.128906 0.0117188 C 3.128906 0.0117188 3.140625 0.0117188 3.152344 0.0117188 C 3.378906 0.0117188 3.984375 -0.0390625 4.519531 -0.535156 C 5.066406 -1.042969 5.339844 -1.8125 5.339844 -2.84375 C 5.339844 -4.046875 5.003906 -4.730469 4.59375 -5.101562 Z M 2.683594 -7.140625 C 2.917969 -7.140625 3.191406 -6.953125 3.191406 -6.394531 C 3.191406 -5.785156 2.90625 -5.5625 2.71875 -5.5625 L 2.335938 -5.5625 L 2.335938 -7.140625 Z M 2.96875 -1.589844 L 2.335938 -1.589844 L 2.335938 -3.972656 L 2.90625 -3.972656 C 3.289062 -3.972656 3.738281 -3.675781 3.738281 -2.84375 C 3.738281 -1.925781 3.277344 -1.589844 2.96875 -1.589844 Z M 2.96875 -1.589844 "/></g></g></g><g fill="#395b0b" fill-opacity="1"><g transform="translate(185.295155, 270.626987)"><g><path d="M 4.421875 0.0117188 L 6.058594 0.0117188 L 4.210938 -8.691406 L 2.507812 -8.691406 L 0.746094 0.0117188 L 2.371094 0.0117188 L 2.71875 -1.726562 L 4.058594 -1.726562 Z M 3.054688 -3.328125 L 3.378906 -4.917969 L 3.710938 -3.328125 Z M 3.054688 -3.328125 "/></g></g></g><g fill="#395b0b" fill-opacity="1"><g transform="translate(192.683148, 270.626987)"><g><path d="M 1.972656 -8.714844 L 1.972656 -7.089844 L 3.453125 -7.089844 L 3.453125 -3.625 C 3.453125 -3.515625 3.453125 -3.390625 3.453125 -3.277344 C 3.453125 -3.277344 3.453125 -3.265625 3.453125 -3.265625 C 3.453125 -3.253906 3.453125 -3.242188 3.453125 -3.226562 C 3.453125 -3.152344 3.441406 -3.042969 3.441406 -2.894531 C 3.425781 -2.878906 3.425781 -2.878906 3.425781 -2.878906 C 3.402344 -2.359375 3.289062 -1.566406 2.941406 -1.566406 C 2.757812 -1.578125 2.570312 -1.625 2.433594 -2.496094 C 2.433594 -2.507812 2.421875 -2.519531 2.421875 -2.546875 C 2.421875 -2.558594 2.421875 -2.582031 2.410156 -2.609375 C 2.410156 -2.65625 2.394531 -2.707031 2.394531 -2.757812 C 2.394531 -2.769531 2.394531 -2.769531 2.382812 -2.78125 C 2.382812 -2.804688 2.382812 -2.820312 2.382812 -2.832031 C 2.382812 -2.878906 2.371094 -2.929688 2.371094 -2.96875 C 2.371094 -2.980469 2.371094 -2.980469 2.371094 -2.992188 C 2.359375 -3.078125 2.359375 -3.179688 2.347656 -3.277344 C 2.347656 -3.304688 2.335938 -3.5 2.335938 -3.636719 L 0.746094 -3.636719 C 0.734375 -3.015625 0.792969 -1.367188 1.601562 -0.523438 C 1.925781 -0.175781 2.347656 0 2.820312 0 C 4.308594 0 5.054688 -1.21875 5.054688 -3.625 L 5.054688 -8.714844 Z M 1.972656 -8.714844 "/></g></g></g><g fill="#395b0b" fill-opacity="1"><g transform="translate(199.065408, 270.626987)"><g><path d="M 4.421875 0.0117188 L 6.058594 0.0117188 L 4.210938 -8.691406 L 2.507812 -8.691406 L 0.746094 0.0117188 L 2.371094 0.0117188 L 2.71875 -1.726562 L 4.058594 -1.726562 Z M 3.054688 -3.328125 L 3.378906 -4.917969 L 3.710938 -3.328125 Z M 3.054688 -3.328125 "/></g></g></g><g fill="#395b0b" fill-opacity="1"><g transform="translate(206.453401, 270.626987)"><g><path d="M 5.414062 -5.984375 C 5.414062 -7.785156 4.65625 -8.703125 3.140625 -8.703125 L 0.746094 -8.703125 L 0.746094 0 L 2.335938 0 L 2.335938 -2.992188 L 2.558594 -2.992188 L 3.699219 0 L 5.402344 0 L 4.183594 -3.214844 C 5.238281 -3.675781 5.414062 -4.84375 5.414062 -5.984375 Z M 3.003906 -4.542969 L 2.335938 -4.542969 L 2.335938 -7.152344 L 2.941406 -7.152344 C 3.339844 -7.152344 3.824219 -6.828125 3.824219 -5.910156 C 3.824219 -4.90625 3.328125 -4.542969 3.003906 -4.542969 Z M 3.003906 -4.542969 "/></g></g></g><g fill="#395b0b" fill-opacity="1"><g transform="translate(213.195741, 270.626987)"><g><path d="M 4.421875 0.0117188 L 6.058594 0.0117188 L 4.210938 -8.691406 L 2.507812 -8.691406 L 0.746094 0.0117188 L 2.371094 0.0117188 L 2.71875 -1.726562 L 4.058594 -1.726562 Z M 3.054688 -3.328125 L 3.378906 -4.917969 L 3.710938 -3.328125 Z M 3.054688 -3.328125 "/></g></g></g><path stroke-linecap="butt" transform="matrix(0.835595, 0, 0, 0.835595, 102.944338, 260.599845)" fill="none" stroke-linejoin="miter" d="M 65.41581 1.582142 L 63.157876 1.582142 L 63.157876 12.002297 L 65.640201 12.002297 C 66.888376 12.002297 68.730252 10.543756 68.730252 6.532767 C 68.730252 2.891089 66.944474 1.582142 65.41581 1.582142 Z M 65.640201 10.0716 L 65.060525 10.0716 L 65.060525 3.512839 L 65.41581 3.512839 C 66.051585 3.512839 66.813579 4.302882 66.813579 6.532767 C 66.813579 9.029117 65.939389 10.024852 65.640201 10.0716 Z M 76.130479 3.526863 L 76.130479 1.582142 L 71.212577 1.582142 L 71.212577 12.016322 L 76.130479 12.016322 L 76.130479 10.085624 L 73.115226 10.085624 L 73.115226 7.271388 L 75.223566 7.271388 L 75.223566 5.35939 L 73.115226 5.35939 L 73.115226 3.526863 Z M 87.064865 1.582142 L 87.064865 5.789472 C 87.064865 8.921596 86.68153 9.786437 86.485188 10.006153 C 86.471164 10.024852 86.457139 10.038876 86.457139 10.052901 C 86.401041 10.099649 86.307545 10.155747 86.204699 10.155747 C 86.129902 10.155747 86.073805 10.113673 86.027056 10.085624 C 86.013032 10.0716 85.980308 10.052901 85.966284 10.024852 C 85.774617 9.82851 85.358558 9.015093 85.358558 5.803497 L 85.358558 1.582142 L 83.45591 1.582142 L 83.45591 5.789472 C 83.441885 8.094155 83.591479 10.366113 84.643312 11.417946 C 85.031321 11.805955 85.508152 12.016322 86.041081 12.016322 L 86.401041 12.016322 C 86.919946 12.016322 87.406126 11.805955 87.794135 11.417946 C 88.850643 10.366113 88.981538 8.094155 88.981538 5.789472 L 88.981538 1.582142 Z M 96.073227 5.892318 C 96.148024 5.667927 96.204122 5.462235 96.236846 5.298617 C 96.25087 5.134999 96.278919 4.952681 96.292944 4.789063 C 96.339692 4.186012 96.311643 3.526863 96.073227 2.951861 C 95.970381 2.652673 95.774039 2.35816 95.535624 2.133769 C 95.241111 1.848606 94.750256 1.717711 94.348222 1.656939 C 93.721797 1.568117 93.053299 1.600841 92.417524 1.600841 C 92.4035 1.600841 91.468538 1.600841 91.468538 1.600841 L 91.468538 12.016322 L 94.315498 12.016322 C 94.315498 12.016322 94.334197 12.016322 94.348222 12.016322 C 94.614686 12.016322 95.343957 11.955549 95.984406 11.361848 C 96.634205 10.754123 96.961442 9.82851 96.961442 8.599034 C 96.961442 7.154517 96.564083 6.336425 96.073227 5.892318 Z M 93.782569 3.456741 C 94.067733 3.456741 94.39497 3.676457 94.39497 4.34963 C 94.39497 5.074226 94.049034 5.34069 93.829318 5.34069 L 93.366511 5.34069 L 93.366511 3.456741 Z M 94.123831 10.099649 L 93.366511 10.099649 L 93.366511 7.243339 L 94.049034 7.243339 C 94.51184 7.243339 95.044769 7.603299 95.044769 8.599034 C 95.044769 9.697615 94.497816 10.099649 94.123831 10.099649 Z M 103.842765 12.016322 L 105.806186 12.016322 L 103.595 1.600841 L 101.552107 1.600841 L 99.443767 12.016322 L 101.388489 12.016322 L 101.809222 9.936031 L 103.412682 9.936031 Z M 102.211255 8.014683 L 102.59459 6.116709 L 102.996624 8.014683 Z M 109.756402 1.568117 L 109.756402 3.512839 L 111.528156 3.512839 L 111.528156 7.659397 C 111.528156 7.794967 111.528156 7.944561 111.528156 8.08013 C 111.528156 8.08013 111.528156 8.094155 111.528156 8.094155 C 111.528156 8.108179 111.528156 8.122203 111.528156 8.136228 C 111.528156 8.225049 111.514131 8.355944 111.514131 8.538262 C 111.495432 8.552286 111.495432 8.552286 111.495432 8.552286 C 111.467383 9.178711 111.331814 10.127698 110.915755 10.127698 C 110.691364 10.113673 110.471648 10.052901 110.30803 9.015093 C 110.30803 9.001068 110.294005 8.987044 110.294005 8.95432 C 110.294005 8.940296 110.294005 8.907572 110.279981 8.879523 C 110.279981 8.81875 110.265956 8.757978 110.265956 8.70188 C 110.265956 8.687856 110.265956 8.687856 110.247257 8.669156 C 110.247257 8.641108 110.247257 8.627083 110.247257 8.613059 C 110.247257 8.552286 110.233233 8.491514 110.233233 8.44944 C 110.233233 8.435416 110.233233 8.435416 110.233233 8.421391 C 110.219208 8.313871 110.219208 8.192326 110.205184 8.08013 C 110.205184 8.047406 110.186485 7.808991 110.186485 7.645373 L 108.288511 7.645373 C 108.274487 8.388668 108.344609 10.366113 109.312295 11.375873 C 109.700304 11.791931 110.205184 12.002297 110.770836 12.002297 C 112.55194 12.002297 113.444829 10.543756 113.444829 7.659397 L 113.444829 1.568117 Z M 120.321477 12.016322 L 122.284898 12.016322 L 120.073712 1.600841 L 118.035494 1.600841 L 115.927154 12.016322 L 117.871876 12.016322 L 118.287934 9.936031 L 119.891394 9.936031 Z M 118.689968 8.014683 L 119.073302 6.116709 L 119.475336 8.014683 Z M 130.353624 4.840485 C 130.353624 2.685397 129.44671 1.582142 127.632883 1.582142 L 124.767223 1.582142 L 124.767223 12.002297 L 126.669872 12.002297 L 126.669872 8.421391 L 126.936336 8.421391 L 128.306056 12.002297 L 130.339599 12.002297 L 128.881058 8.150252 C 130.147932 7.603299 130.353624 6.205531 130.353624 4.840485 Z M 127.469265 6.560816 L 126.669872 6.560816 L 126.669872 3.442717 L 127.399142 3.442717 C 127.871298 3.442717 128.450975 3.826051 128.450975 4.924632 C 128.450975 6.130734 127.857274 6.560816 127.469265 6.560816 Z M 137.234947 12.016322 L 139.193693 12.016322 L 136.982507 1.600841 L 134.944289 1.600841 L 132.835949 12.016322 L 134.78067 12.016322 L 135.196729 9.936031 L 136.800189 9.936031 Z M 135.598763 8.014683 L 135.986772 6.116709 L 136.388806 8.014683 Z M 135.598763 8.014683 " stroke="#ffffff" stroke-width="0.353027" stroke-opacity="1" stroke-miterlimit="4"/><g fill="#395b0b" fill-opacity="1"><g transform="translate(26.364699, 254.703175)"><g><path d="M 0.167969 -7.339844 L 0.167969 -0.101562 C 1.953125 0.304688 2.761719 0.335938 3.90625 0.335938 C 7.574219 0.335938 9.5625 -1.3125 9.394531 -7.003906 C 9.257812 -11.34375 9.191406 -20.839844 9.394531 -23.566406 L 4.613281 -23.566406 C 4.679688 -21.679688 4.746094 -15.753906 4.746094 -10.371094 C 4.746094 -7.675781 4.207031 -7.070312 2.324219 -7.070312 C 1.886719 -7.070312 1.28125 -7.070312 0.167969 -7.339844 Z M 0.167969 -7.339844 "/></g></g></g><g fill="#395b0b" fill-opacity="1"><g transform="translate(38.482228, 254.703175)"><g><path d="M 12.152344 0.503906 C 19.558594 0.503906 23.464844 -3.636719 23.464844 -11.78125 C 23.464844 -19.796875 19.527344 -23.9375 12.152344 -23.9375 C 4.746094 -23.9375 0.839844 -19.796875 0.839844 -11.78125 C 0.839844 -3.636719 4.746094 0.503906 12.152344 0.503906 Z M 5.621094 -11.78125 C 5.621094 -15.417969 7.910156 -16.53125 12.152344 -16.53125 C 16.429688 -16.53125 18.683594 -15.417969 18.683594 -11.78125 C 18.683594 -7.980469 16.429688 -6.902344 12.152344 -6.902344 C 7.878906 -6.902344 5.621094 -7.980469 5.621094 -11.78125 Z M 5.621094 -11.78125 "/></g></g></g><g fill="#395b0b" fill-opacity="1"><g transform="translate(64.332568, 254.703175)"><g><path d="M 10.636719 0.335938 C 13.9375 0.335938 15.890625 -0.640625 17 -2.996094 L 17.070312 -2.996094 L 16.902344 0 L 21.109375 0 C 21.007812 -4.410156 21.007812 -8.886719 21.109375 -13.703125 L 12.859375 -13.703125 L 12.859375 -9.695312 L 16.867188 -9.695312 C 16.867188 -7.910156 15.488281 -6.632812 12.085938 -6.632812 C 7.40625 -6.632812 5.65625 -8.820312 5.65625 -11.78125 C 5.65625 -15.117188 8.617188 -16.53125 12.152344 -16.53125 C 15.6875 -16.53125 18.820312 -15.855469 20.234375 -15.316406 L 20.234375 -22.253906 C 18.382812 -23.195312 15.925781 -23.9375 11.851562 -23.9375 C 5.050781 -23.9375 0.839844 -19.695312 0.839844 -11.78125 C 0.839844 -2.828125 5.117188 0.335938 10.636719 0.335938 Z M 10.636719 0.335938 "/></g></g></g><g fill="#395b0b" fill-opacity="1"><g transform="translate(87.82679, 254.703175)"><g><path d="M 12.152344 0.503906 C 19.558594 0.503906 23.464844 -3.636719 23.464844 -11.78125 C 23.464844 -19.796875 19.527344 -23.9375 12.152344 -23.9375 C 4.746094 -23.9375 0.839844 -19.796875 0.839844 -11.78125 C 0.839844 -3.636719 4.746094 0.503906 12.152344 0.503906 Z M 5.621094 -11.78125 C 5.621094 -15.417969 7.910156 -16.53125 12.152344 -16.53125 C 16.429688 -16.53125 18.683594 -15.417969 18.683594 -11.78125 C 18.683594 -7.980469 16.429688 -6.902344 12.152344 -6.902344 C 7.878906 -6.902344 5.621094 -7.980469 5.621094 -11.78125 Z M 5.621094 -11.78125 "/></g></g></g><g fill="#395b0b" fill-opacity="1"><g transform="translate(113.677133, 254.703175)"><g><path d="M 9.964844 0.335938 C 15.015625 0.335938 19.828125 -1.546875 19.828125 -7.136719 C 19.828125 -13.128906 15.855469 -13.636719 10.539062 -14.039062 C 6.734375 -14.339844 6.296875 -14.78125 6.296875 -15.488281 C 6.296875 -16.261719 7.171875 -16.867188 10.03125 -16.867188 C 14.511719 -16.867188 17.40625 -16.125 18.683594 -15.722656 L 18.382812 -22.589844 C 16.730469 -23.164062 13.433594 -23.9375 10.503906 -23.9375 C 3.164062 -23.9375 0.671875 -19.898438 0.671875 -16.394531 C 0.671875 -10.875 4.476562 -10 9.5625 -9.832031 C 13.601562 -9.695312 14.105469 -9.023438 14.105469 -8.449219 C 14.105469 -7.640625 13.332031 -6.734375 10 -6.734375 C 6.261719 -6.734375 3.332031 -7.339844 0.976562 -7.84375 L 1.179688 -1.179688 C 3.9375 -0.335938 6.96875 0.335938 9.964844 0.335938 Z M 9.964844 0.335938 "/></g></g></g><g fill="#395b0b" fill-opacity="1"><g transform="translate(135.724025, 254.703175)"><g/></g></g><g fill="#395b0b" fill-opacity="1"><g transform="translate(146.394221, 254.703175)"><g><path d="M 1.683594 0 L 19.359375 0 L 19.359375 -7.304688 L 6.328125 -7.304688 L 6.328125 -10.269531 L 17.371094 -10.269531 L 17.371094 -13.871094 L 6.328125 -13.871094 L 6.328125 -16.261719 L 18.988281 -16.261719 L 18.988281 -23.566406 L 1.683594 -23.566406 C 1.785156 -19.726562 1.816406 -14.609375 1.816406 -11.714844 C 1.816406 -8.785156 1.785156 -3.90625 1.683594 0 Z M 1.683594 0 "/></g></g></g><g fill="#395b0b" fill-opacity="1"><g transform="translate(167.969892, 254.703175)"><g><path d="M 9.964844 0.335938 C 15.015625 0.335938 19.828125 -1.546875 19.828125 -7.136719 C 19.828125 -13.128906 15.855469 -13.636719 10.539062 -14.039062 C 6.734375 -14.339844 6.296875 -14.78125 6.296875 -15.488281 C 6.296875 -16.261719 7.171875 -16.867188 10.03125 -16.867188 C 14.511719 -16.867188 17.40625 -16.125 18.683594 -15.722656 L 18.382812 -22.589844 C 16.730469 -23.164062 13.433594 -23.9375 10.503906 -23.9375 C 3.164062 -23.9375 0.671875 -19.898438 0.671875 -16.394531 C 0.671875 -10.875 4.476562 -10 9.5625 -9.832031 C 13.601562 -9.695312 14.105469 -9.023438 14.105469 -8.449219 C 14.105469 -7.640625 13.332031 -6.734375 10 -6.734375 C 6.261719 -6.734375 3.332031 -7.339844 0.976562 -7.84375 L 1.179688 -1.179688 C 3.9375 -0.335938 6.96875 0.335938 9.964844 0.335938 Z M 9.964844 0.335938 "/></g></g></g><g fill="#395b0b" fill-opacity="1"><g transform="translate(190.016784, 254.703175)"><g><path d="M 11.953125 0.335938 C 15.21875 0.335938 17.238281 -0.0664062 19.390625 -0.941406 L 19.390625 -8.148438 C 16.800781 -7.339844 15.148438 -7.070312 12.589844 -7.070312 C 8.753906 -7.070312 5.65625 -8.550781 5.65625 -11.78125 C 5.65625 -15.117188 8.753906 -16.53125 12.457031 -16.53125 C 15.148438 -16.53125 16.800781 -16.261719 19.222656 -15.417969 L 19.222656 -22.625 C 17.238281 -23.53125 15.183594 -23.9375 11.984375 -23.9375 C 5.21875 -23.9375 0.839844 -19.761719 0.839844 -11.714844 C 0.839844 -3.839844 5.21875 0.335938 11.953125 0.335938 Z M 11.953125 0.335938 "/></g></g></g><g fill="#395b0b" fill-opacity="1"><g transform="translate(211.962694, 254.703175)"><g><path d="M 12.152344 0.503906 C 19.558594 0.503906 23.464844 -3.636719 23.464844 -11.78125 C 23.464844 -19.796875 19.527344 -23.9375 12.152344 -23.9375 C 4.746094 -23.9375 0.839844 -19.796875 0.839844 -11.78125 C 0.839844 -3.636719 4.746094 0.503906 12.152344 0.503906 Z M 5.621094 -11.78125 C 5.621094 -15.417969 7.910156 -16.53125 12.152344 -16.53125 C 16.429688 -16.53125 18.683594 -15.417969 18.683594 -11.78125 C 18.683594 -7.980469 16.429688 -6.902344 12.152344 -6.902344 C 7.878906 -6.902344 5.621094 -7.980469 5.621094 -11.78125 Z M 5.621094 -11.78125 "/></g></g></g><g fill="#395b0b" fill-opacity="1"><g transform="translate(237.813038, 254.703175)"><g><path d="M 1.683594 0 L 18.011719 0 L 18.011719 -7.304688 L 6.328125 -7.304688 C 6.328125 -12.152344 6.363281 -17.84375 6.464844 -23.566406 L 1.683594 -23.566406 C 1.785156 -19.726562 1.816406 -14.609375 1.816406 -11.714844 C 1.816406 -8.785156 1.785156 -3.90625 1.683594 0 Z M 1.683594 0 "/></g></g></g><g fill="#395b0b" fill-opacity="1"><g transform="translate(257.705763, 254.703175)"><g><path d="M 0.167969 0 L 5.21875 0 L 6.566406 -4.410156 L 16.394531 -4.410156 L 17.742188 0 L 22.792969 0 C 20.234375 -7.507812 17.675781 -15.386719 15.117188 -23.566406 L 7.84375 -23.566406 C 5.285156 -15.386719 2.726562 -7.507812 0.167969 0 Z M 8.6875 -11.3125 L 10.234375 -16.429688 L 12.691406 -16.429688 L 14.273438 -11.3125 Z M 8.6875 -11.3125 "/></g></g></g><g fill="#395b0b" fill-opacity="1"><g transform="translate(282.209752, 254.703175)"><g><path d="M 1.683594 0 L 6.53125 0 C 6.464844 -2.558594 6.429688 -5.421875 6.398438 -8.011719 L 12.085938 -8.011719 C 14.578125 -8.011719 16.96875 -7.273438 16.96875 -3.804688 C 16.96875 -1.886719 16.96875 -0.941406 16.933594 0 L 21.75 0 C 21.714844 -1.144531 21.714844 -2.289062 21.714844 -3.398438 C 21.714844 -7.105469 20.871094 -9.054688 18.484375 -10 L 18.484375 -10.066406 C 20.90625 -11.109375 21.78125 -12.960938 21.78125 -15.925781 C 21.78125 -20.605469 18.785156 -23.566406 12.691406 -23.566406 L 1.683594 -23.566406 C 1.785156 -19.964844 1.816406 -15.621094 1.816406 -11.816406 C 1.816406 -6.800781 1.71875 -2.222656 1.683594 0 Z M 6.328125 -11.882812 L 6.328125 -16.96875 L 13.195312 -16.96875 C 14.980469 -16.96875 16.261719 -16.125 16.261719 -14.644531 C 16.261719 -12.792969 14.914062 -11.882812 12.859375 -11.882812 Z M 6.328125 -11.882812 "/></g></g></g><g fill="#395b0b" fill-opacity="1"><g transform="translate(306.54544, 254.703175)"><g><path d="M 1.683594 0 L 19.359375 0 L 19.359375 -7.304688 L 6.328125 -7.304688 L 6.328125 -10.269531 L 17.371094 -10.269531 L 17.371094 -13.871094 L 6.328125 -13.871094 L 6.328125 -16.261719 L 18.988281 -16.261719 L 18.988281 -23.566406 L 1.683594 -23.566406 C 1.785156 -19.726562 1.816406 -14.609375 1.816406 -11.714844 C 1.816406 -8.785156 1.785156 -3.90625 1.683594 0 Z M 1.683594 0 "/></g></g></g><g fill="#395b0b" fill-opacity="1"><g transform="translate(328.121098, 254.703175)"><g><path d="M 9.964844 0.335938 C 15.015625 0.335938 19.828125 -1.546875 19.828125 -7.136719 C 19.828125 -13.128906 15.855469 -13.636719 10.539062 -14.039062 C 6.734375 -14.339844 6.296875 -14.78125 6.296875 -15.488281 C 6.296875 -16.261719 7.171875 -16.867188 10.03125 -16.867188 C 14.511719 -16.867188 17.40625 -16.125 18.683594 -15.722656 L 18.382812 -22.589844 C 16.730469 -23.164062 13.433594 -23.9375 10.503906 -23.9375 C 3.164062 -23.9375 0.671875 -19.898438 0.671875 -16.394531 C 0.671875 -10.875 4.476562 -10 9.5625 -9.832031 C 13.601562 -9.695312 14.105469 -9.023438 14.105469 -8.449219 C 14.105469 -7.640625 13.332031 -6.734375 10 -6.734375 C 6.261719 -6.734375 3.332031 -7.339844 0.976562 -7.84375 L 1.179688 -1.179688 C 3.9375 -0.335938 6.96875 0.335938 9.964844 0.335938 Z M 9.964844 0.335938 "/></g></g></g><path stroke-linecap="butt" transform="matrix(0.835595, 0, 0, 0.835595, 21.155286, 223.786157)" fill="none" stroke-linejoin="miter" d="M 6.42902 28.215968 L 6.42902 36.883069 C 8.574759 37.364575 9.53777 37.401974 10.90749 37.401974 C 15.301814 37.401974 17.671943 35.424528 17.475601 28.618002 C 17.311983 23.424286 17.232511 12.064493 17.475601 8.796799 L 11.753631 8.796799 C 11.833103 11.050058 11.921924 18.141748 11.921924 24.588314 C 11.921924 27.813934 11.272126 28.53853 9.018866 28.53853 C 8.485938 28.53853 7.770691 28.53853 6.42902 28.215968 Z M 35.28196 37.598316 C 44.145403 37.598316 48.820215 32.652365 48.820215 22.896032 C 48.820215 13.312667 44.108005 8.357367 35.28196 8.357367 C 26.423191 8.357367 21.73903 13.312667 21.73903 22.896032 C 21.73903 32.652365 26.423191 37.598316 35.28196 37.598316 Z M 27.465674 22.896032 C 27.465674 18.548457 30.209789 17.22081 35.28196 17.22081 C 40.400879 17.22081 43.093571 18.548457 43.093571 22.896032 C 43.093571 27.449299 40.400879 28.739547 35.28196 28.739547 C 30.158366 28.739547 27.465674 27.449299 27.465674 22.896032 Z M 64.401364 37.401974 C 68.356255 37.401974 70.684311 36.233271 72.011958 33.409684 L 72.100779 33.409684 L 71.895087 36.99994 L 76.934535 36.99994 C 76.812989 31.717402 76.812989 26.364742 76.934535 20.600699 L 67.066006 20.600699 L 67.066006 25.392382 L 71.857689 25.392382 C 71.857689 27.528771 70.202805 29.062109 66.131044 29.062109 C 60.535294 29.062109 58.440978 26.444214 58.440978 22.896032 C 58.440978 18.913092 61.989161 17.22081 66.219866 17.22081 C 70.45057 17.22081 74.19977 18.024878 75.892051 18.665327 L 75.892051 10.372211 C 73.666841 9.240906 70.726384 8.357367 65.85523 8.357367 C 57.711708 8.357367 52.676935 13.434213 52.676935 22.896032 C 52.676935 33.615376 57.800529 37.401974 64.401364 37.401974 Z M 94.33886 37.598316 C 103.197628 37.598316 107.87244 32.652365 107.87244 22.896032 C 107.87244 13.312667 103.16023 8.357367 94.33886 8.357367 C 85.475416 8.357367 80.791254 13.312667 80.791254 22.896032 C 80.791254 32.652365 85.475416 37.598316 94.33886 37.598316 Z M 86.517899 22.896032 C 86.517899 18.548457 89.262014 17.22081 94.33886 17.22081 C 99.453104 17.22081 102.145796 18.548457 102.145796 22.896032 C 102.145796 27.449299 99.453104 28.739547 94.33886 28.739547 C 89.210591 28.739547 86.517899 27.449299 86.517899 22.896032 Z M 122.649521 37.401974 C 128.698728 37.401974 134.462771 35.148714 134.462771 28.463733 C 134.462771 21.292571 129.699137 20.680171 123.336718 20.198665 C 118.783451 19.83403 118.259872 19.315126 118.259872 18.468985 C 118.259872 17.543372 119.302355 16.814102 122.733667 16.814102 C 128.086327 16.814102 131.559712 17.702316 133.083701 18.183822 L 132.719066 9.970177 C 130.75097 9.28298 126.796079 8.357367 123.294645 8.357367 C 114.510673 8.357367 111.532818 13.186448 111.532818 17.375079 C 111.532818 23.985263 116.086085 25.027746 122.16334 25.233438 C 127.006446 25.392382 127.604822 26.201124 127.604822 26.888321 C 127.604822 27.851333 126.679209 28.945239 122.696269 28.945239 C 118.222474 28.945239 114.72104 28.215968 111.897453 27.617592 L 112.131194 35.592821 C 115.436286 36.597906 119.068615 37.401974 122.649521 37.401974 Z M 151.895145 36.99994 L 173.043994 36.99994 L 173.043994 28.253366 L 157.453496 28.253366 L 157.453496 24.714534 L 170.673864 24.714534 L 170.673864 20.395008 L 157.453496 20.395008 L 157.453496 17.543372 L 172.599887 17.543372 L 172.599887 8.796799 L 151.895145 8.796799 C 152.01669 13.392139 152.054088 19.511468 152.054088 22.984853 C 152.054088 26.486288 152.01669 32.329803 151.895145 36.99994 Z M 187.624732 37.401974 C 193.673939 37.401974 199.437982 35.148714 199.437982 28.463733 C 199.437982 21.292571 194.674349 20.680171 188.31193 20.198665 C 183.758663 19.83403 183.235084 19.315126 183.235084 18.468985 C 183.235084 17.543372 184.277567 16.814102 187.708879 16.814102 C 193.061539 16.814102 196.534924 17.702316 198.058913 18.183822 L 197.694277 9.970177 C 195.726182 9.28298 191.771291 8.357367 188.269856 8.357367 C 179.485885 8.357367 176.50803 13.186448 176.50803 17.375079 C 176.50803 23.985263 181.061296 25.027746 187.138552 25.233438 C 191.981657 25.392382 192.580033 26.201124 192.580033 26.888321 C 192.580033 27.851333 191.65442 28.945239 187.671481 28.945239 C 183.197685 28.945239 179.696251 28.215968 176.872665 27.617592 L 177.106405 35.592821 C 180.411498 36.597906 184.043826 37.401974 187.624732 37.401974 Z M 216.38885 37.401974 C 220.292318 37.401974 222.713871 36.920468 225.289692 35.868635 L 225.289692 27.252957 C 222.190292 28.215968 220.212847 28.53853 217.15552 28.53853 C 212.560179 28.53853 208.853054 26.771451 208.853054 22.896032 C 208.853054 18.913092 212.560179 17.22081 216.996576 17.22081 C 220.212847 17.22081 222.190292 17.543372 225.09335 18.548457 L 225.09335 9.918754 C 222.713871 8.838872 220.25492 8.357367 216.426249 8.357367 C 208.329475 8.357367 203.08901 13.354741 203.08901 22.984853 C 203.08901 32.4046 208.329475 37.401974 216.38885 37.401974 Z M 242.895034 37.598316 C 251.758478 37.598316 256.43329 32.652365 256.43329 22.896032 C 256.43329 13.312667 251.721079 8.357367 242.895034 8.357367 C 234.036266 8.357367 229.352104 13.312667 229.352104 22.896032 C 229.352104 32.652365 234.036266 37.598316 242.895034 37.598316 Z M 235.078749 22.896032 C 235.078749 18.548457 237.822863 17.22081 242.895034 17.22081 C 248.013953 17.22081 250.706645 18.548457 250.706645 22.896032 C 250.706645 27.449299 248.013953 28.739547 242.895034 28.739547 C 237.77144 28.739547 235.078749 27.449299 235.078749 22.896032 Z M 261.299769 36.99994 L 280.835808 36.99994 L 280.835808 28.253366 L 266.85812 28.253366 C 266.85812 22.451925 266.900194 15.645399 267.017064 8.796799 L 261.299769 8.796799 C 261.421314 13.392139 261.458713 19.511468 261.458713 22.984853 C 261.458713 26.486288 261.421314 32.329803 261.299769 36.99994 Z M 283.290085 36.99994 L 289.339291 36.99994 L 290.952101 31.717402 L 302.713928 31.717402 L 304.326738 36.99994 L 310.366596 36.99994 C 307.309268 28.019626 304.242592 18.585855 301.18059 8.796799 L 292.47609 8.796799 C 289.418763 18.585855 286.356761 28.019626 283.290085 36.99994 Z M 293.490524 23.466359 L 295.337075 17.337681 L 298.277532 17.337681 L 300.18018 23.466359 Z M 314.433682 36.99994 L 320.235124 36.99994 C 320.150977 33.942613 320.108904 30.515975 320.071505 27.407226 L 326.878031 27.407226 C 329.865236 27.407226 332.721546 28.29544 332.721546 32.446673 C 332.721546 34.74668 332.721546 35.868635 332.679473 36.99994 L 338.443516 36.99994 C 338.406118 35.634895 338.406118 34.255825 338.406118 32.928178 C 338.406118 28.501132 337.401033 26.159051 334.540048 25.027746 L 334.540048 24.948274 C 337.443106 23.7001 338.48559 21.488914 338.48559 17.945406 C 338.48559 12.340307 334.904684 8.796799 327.602627 8.796799 L 314.433682 8.796799 C 314.550552 13.106976 314.592626 18.300692 314.592626 22.853959 C 314.592626 28.865767 314.47108 34.344646 314.433682 36.99994 Z M 319.992033 22.774487 L 319.992033 16.697231 L 328.215028 16.697231 C 330.351417 16.697231 331.875405 17.702316 331.875405 19.469395 C 331.875405 21.694605 330.271945 22.774487 327.812994 22.774487 Z M 343.55776 36.99994 L 364.70661 36.99994 L 364.70661 28.253366 L 349.116112 28.253366 L 349.116112 24.714534 L 362.33648 24.714534 L 362.33648 20.395008 L 349.116112 20.395008 L 349.116112 17.543372 L 364.262503 17.543372 L 364.262503 8.796799 L 343.55776 8.796799 C 343.674631 13.392139 343.716704 19.511468 343.716704 22.984853 C 343.716704 26.486288 343.674631 32.329803 343.55776 36.99994 Z M 379.282674 37.401974 C 385.33188 37.401974 391.095923 35.148714 391.095923 28.463733 C 391.095923 21.292571 386.336965 20.680171 379.969871 20.198665 C 375.416604 19.83403 374.8977 19.315126 374.8977 18.468985 C 374.8977 17.543372 375.940183 16.814102 379.371495 16.814102 C 384.724155 16.814102 388.19754 17.702316 389.721529 18.183822 L 389.356893 9.970177 C 387.388798 9.28298 383.433907 8.357367 379.932472 8.357367 C 371.148501 8.357367 368.170646 13.186448 368.170646 17.375079 C 368.170646 23.985263 372.723912 25.027746 378.801168 25.233438 C 383.639598 25.392382 384.242649 26.201124 384.242649 26.888321 C 384.242649 27.851333 383.317036 28.945239 379.334097 28.945239 C 374.855627 28.945239 371.354192 28.215968 368.530606 27.617592 L 368.769021 35.592821 C 372.074114 36.597906 375.701768 37.401974 379.282674 37.401974 Z M 379.282674 37.401974 " stroke="#ffffff" stroke-width="2.190774" stroke-opacity="1" stroke-miterlimit="4"/></svg>